<svg width="48" height="48" viewBox="0 0 48 48" fill="none" xmlns="http://www.w3.org/2000/svg">
<path fill-rule="evenodd" clip-rule="evenodd" d="M42.528 4.65177C42.3422 4.46731 42.1217 4.32097 41.8789 4.22112C41.6361 4.12128 41.3758 4.06989 41.113 4.06989C40.8502 4.06989 40.5899 4.12128 40.3471 4.22112C40.1043 4.32097 39.8837 4.46731 39.698 4.65177L37.954 6.38184C36.8339 5.85162 35.5756 5.67891 34.3524 5.88747C33.1293 6.09604 32.0013 6.67564 31.124 7.54646L9.90998 28.589L21.224 39.8126L42.44 18.7681C44.288 16.9368 44.678 14.2048 43.612 11.9946L45.358 10.2626C45.7329 9.89053 45.9436 9.38598 45.9436 8.85989C45.9436 8.33379 45.7329 7.82924 45.358 7.45718L42.528 4.65177ZM33.992 21.5358L21.224 34.2018L15.568 28.589L28.334 15.925L33.992 21.5378V21.5358ZM37.628 17.9289L39.608 15.9647C39.7939 15.7804 39.9415 15.5616 40.0421 15.3207C40.1428 15.0799 40.1946 14.8217 40.1946 14.561C40.1946 14.3002 40.1428 14.0421 40.0421 13.8012C39.9415 13.5604 39.7939 13.3415 39.608 13.1573L36.782 10.3519C36.5962 10.1674 36.3757 10.0211 36.1329 9.92122C35.8901 9.82138 35.6298 9.76998 35.367 9.76998C35.1042 9.76998 34.8439 9.82138 34.6011 9.92122C34.3583 10.0211 34.1377 10.1674 33.952 10.3519L31.972 12.3161L37.628 17.9308V17.9289Z" fill="#4694DC"/>
<path d="M4 45.6357L8.244 30.2039L19.556 41.4276L4 45.6357Z" fill="#4694DC"/>
</svg>
