<svg width="61" height="61" viewBox="0 0 61 61" fill="none" xmlns="http://www.w3.org/2000/svg">
<path d="M40.3591 12.4281H9.85913V17.4709H40.3591V12.4281Z" fill="#4694DC"/>
<path d="M40.3591 22.5136H9.85913V27.5563H40.3591V22.5136Z" fill="#4694DC"/>
<path d="M9.85913 32.599H30.1925V37.6418H9.85913V32.599V32.599Z" fill="#4694DC"/>
<path fill-rule="evenodd" clip-rule="evenodd" d="M34.9658 32.2915C33.69 33.5525 32.9055 35.2208 32.751 37.0008C32.5966 38.7808 33.0822 40.5576 34.1219 42.0164C35.1616 43.4751 36.6883 44.5218 38.4315 44.9708C40.1746 45.4198 42.0217 45.2423 43.6456 44.4696L47.547 48.3374L51.1409 44.7722L47.2395 40.9019C48.0127 39.2917 48.1878 37.4623 47.7336 35.7365C47.2795 34.0107 46.2255 32.4996 44.7575 31.4698C43.2895 30.4399 41.502 29.9576 39.7105 30.108C37.9189 30.2583 36.2385 31.0316 34.9658 32.2915V32.2915ZM38.5622 39.4244C38.7984 39.6585 39.0787 39.8441 39.3872 39.9708C39.6956 40.0974 40.0262 40.1625 40.3601 40.1624C40.6939 40.1623 41.0245 40.0969 41.3329 39.9701C41.6412 39.8432 41.9214 39.6574 42.1574 39.4231C42.3934 39.1889 42.5805 38.9108 42.7082 38.6048C42.8358 38.2988 42.9015 37.9708 42.9014 37.6396C42.9012 37.3085 42.8354 36.9805 42.7075 36.6746C42.5796 36.3687 42.3923 36.0908 42.1561 35.8567C41.6792 35.3839 41.0325 35.1184 40.3583 35.1186C39.684 35.1189 39.0375 35.3848 38.5609 35.8579C38.0844 36.331 37.8168 36.9726 37.817 37.6414C37.8172 38.3103 38.0853 38.9516 38.5622 39.4244V39.4244Z" fill="#4694DC"/>
</svg>
